<?xml version="1.0" encoding="iso-8859-1"?>
<!-- Generator: Adobe Illustrator 19.0.0, SVG Export Plug-In . SVG Version: 6.00 Build 0)  -->
<svg version="1.1" id="Layer_1" xmlns="http://www.w3.org/2000/svg" xmlns:xlink="http://www.w3.org/1999/xlink" x="0px" y="0px"
	 viewBox="0 0 510.496 510.496" style="enable-background:new 0 0 510.496 510.496;" xml:space="preserve">
<rect x="79.248" y="72.032" width="352" height="240.16"/>
<path d="M439.312,320.208h-368V64.048h368V320.208z M87.312,304.208h336V80.048h-336C87.312,80.048,87.312,304.208,87.312,304.208z"
	/>
<g style="opacity:0.35;">
	<polygon style="fill:#FFFFFF;" points="71.184,63.808 207.184,63.808 71.184,146.8 	"/>
</g>
<path d="M510.496,446.688H0l79.216-150.464H431.28L510.496,446.688z M52.992,414.688h404.496l-45.536-86.464H98.528L52.992,414.688z
	"/>
<rect x="108.416" y="363.52" width="297.328" height="16"/>
<g>
	<path style="fill:#FFFFFF;" d="M167.92,198.8h14.432v2.608c0,10.544-1.92,17.376-5.76,20.464c-3.856,3.088-12.368,4.64-25.568,4.64
		c-14.96,0-24.16-2.448-27.6-7.344c-3.456-4.88-5.168-17.952-5.168-39.2c0-12.512,2.336-20.752,7.008-24.688
		c4.672-3.936,14.416-5.92,29.264-5.92c10.816,0,18.032,1.632,21.664,4.864c3.632,3.248,5.44,9.68,5.44,19.312l0.064,1.712h-14.448
		v-1.952c0-4.96-0.928-8.128-2.8-9.52s-6.144-2.096-12.8-2.096c-8.944,0-14.304,1.088-16.08,3.28
		c-1.792,2.192-2.704,8.672-2.704,19.44c0,14.512,0.816,23.104,2.416,25.776c1.616,2.656,6.816,4,15.632,4
		c7.152,0,11.776-0.752,13.92-2.24c2.128-1.472,3.184-4.736,3.184-9.76L167.92,198.8z"/>
	<path style="fill:#FFFFFF;" d="M222.896,149.376c13.776,0,22.64,2.304,26.608,6.864c3.952,4.576,5.936,14.816,5.936,30.688
		c0,17.376-1.984,28.32-5.968,32.832s-13.632,6.784-28.912,6.784c-13.776,0-22.688-2.24-26.72-6.704
		c-4.032-4.448-6.048-14.288-6.048-29.456c0-18.08,1.968-29.424,5.936-34.048C197.696,151.696,207.408,149.376,222.896,149.376z
		 M221.792,161.696c-9.664,0-15.312,1.248-16.944,3.728c-1.648,2.464-2.448,11.056-2.448,25.76c0,10.896,0.96,17.44,2.864,19.664
		s7.536,3.344,16.864,3.344c8.928,0,14.288-1.248,16.048-3.744c1.776-2.496,2.672-10.096,2.672-22.752
		c0-12.704-0.848-20.208-2.528-22.512C236.624,162.864,231.12,161.696,221.792,161.696z"/>
	<path style="fill:#FFFFFF;" d="M265.168,225.856v-75.808h37.264c10.576,0,18,2.32,22.24,6.944
		c4.256,4.64,6.352,12.752,6.352,24.336c0,18.928-1.696,31.072-5.104,36.464s-11.088,8.08-23.04,8.08h-37.712V225.856z
		 M279.536,213.744h20.496c6.896,0,11.328-1.584,13.36-4.752c2.016-3.152,3.008-10.16,3.008-20.976
		c0-11.168-0.912-18.288-2.72-21.328c-1.808-3.024-6.064-4.544-12.768-4.544H279.52v51.6H279.536z"/>
	<path style="fill:#FFFFFF;" d="M354.416,162.144v19.552h35.552v10.608h-35.552v21.44h37.824v12.112h-52.208v-75.808h51.872v12.112
		h-37.488V162.144z"/>
</g>
<g>
</g>
<g>
</g>
<g>
</g>
<g>
</g>
<g>
</g>
<g>
</g>
<g>
</g>
<g>
</g>
<g>
</g>
<g>
</g>
<g>
</g>
<g>
</g>
<g>
</g>
<g>
</g>
<g>
</g>
</svg>
